<svg width="75" height="80" viewBox="0 0 75 80" fill="none" xmlns="http://www.w3.org/2000/svg">
<g clip-path="url(#clip0_1_207)">
<path d="M24 48.1468C22.7578 46.5634 20.4023 46.2377 18.75 47.4281C17.0977 48.6184 16.7578 50.8756 18 52.459L22.4648 58.1637C23.0273 58.8824 22.9453 59.8819 22.2891 60.5107L20.7891 61.9481C20.0039 62.7005 18.7266 62.6444 18.0234 61.8246L7.5 49.7189V33.054C7.5 31.0663 5.82422 29.4604 3.75 29.4604C1.67578 29.4604 0 31.0663 0 33.054V57.5798C0 58.8038 0.433594 59.9942 1.23047 60.9487L13.4297 76.0303C14.0156 76.7602 14.4141 77.5912 14.6484 78.4671C14.8594 79.242 15.5977 79.7698 16.4414 79.7698H31.875C32.9063 79.7698 33.75 78.9612 33.75 77.973V65.3957C33.75 62.285 32.6953 59.2642 30.75 56.7712L24 48.1468ZM71.25 29.4604C69.1758 29.4604 67.5 31.0663 67.5 33.054V49.7189L56.9766 61.8246C56.2734 62.6332 54.9844 62.6893 54.2109 61.9481L52.7109 60.5107C52.0547 59.8819 51.9727 58.8824 52.5352 58.1637L57 52.459C58.2422 50.8756 57.9023 48.6184 56.25 47.4281C54.5977 46.2377 52.2422 46.5634 51 48.1468L44.25 56.7712C42.3047 59.2642 41.25 62.285 41.25 65.3957V77.973C41.25 78.9612 42.0937 79.7698 43.125 79.7698H58.5586C59.3906 79.7698 60.1406 79.242 60.3516 78.4671C60.5859 77.5912 60.9844 76.7602 61.5703 76.0303L73.7695 60.9487C74.5664 59.9942 75 58.8038 75 57.5798V33.054C75 31.0663 73.3242 29.4604 71.25 29.4604Z" fill="black"/>
</g>
<g clip-path="url(#clip1_1_207)">
<path d="M39.667 7.97811L37.4999 10.1876L35.3329 7.97811C29.3488 1.8764 19.6466 1.8764 13.6625 7.97811C7.67834 14.0798 7.67834 23.9751 13.6625 30.0802L15.8295 32.2898L37.4999 54.3885L59.1704 32.2864L61.3374 30.0768C67.3216 23.9751 67.3216 14.0798 61.3374 7.97471C55.3533 1.87301 45.6511 1.873 39.667 7.97811Z" fill="black"/>
<g clip-path="url(#clip2_1_207)">
<path d="M49.021 19.554L43.2254 21.5025V29.4604C43.2254 29.7846 43.4981 30.0432 43.8399 30.0432H46.298C46.6388 30.0432 46.9125 29.7837 46.9125 29.4932V25.4469H53.0576V29.4932C53.0576 29.7846 53.3302 30.0432 53.6721 30.0432H56.1301C56.4719 30.0432 56.7446 29.7846 56.7446 29.4604V21.67C58.1703 21.1893 59.2026 19.9036 59.2026 18.3885C59.2026 17.7468 58.6503 17.2558 57.9736 17.2558C57.2969 17.2558 56.7446 17.7792 56.7446 18.3885C56.7446 18.9978 56.1923 19.5212 55.5156 19.5212H49.021V19.554ZM39.5384 15.4748V16.6075C39.5384 17.8957 40.6376 18.9057 41.9964 18.9057L43.2254 18.9057V20.203L48.1415 18.5367V13.1439C48.1415 12.6249 47.479 12.3656 47.0949 12.7342L46.0433 13.7266L43.9836 13.7266C43.5657 13.7266 43.0714 14.0134 42.8844 14.3731L42.6109 14.8921L40.1529 14.8921C39.8111 14.8921 39.5384 15.1507 39.5384 15.4748ZM43.8399 15.4748C43.8399 15.1516 44.1136 14.9249 44.4544 14.9249C44.7953 14.9249 45.0689 15.1843 45.0689 15.4748C45.0689 15.7653 44.7953 16.0248 44.4544 16.0248C44.1136 16.0248 43.8399 15.799 43.8399 15.4748Z" fill="white"/>
</g>
<path d="M31.1264 27.3885H28.9344V21.4126C28.9348 21.3988 28.9299 21.3854 28.9207 21.3749C28.9115 21.3643 28.8986 21.3574 28.8844 21.3553C28.8702 21.3533 28.8558 21.3563 28.8437 21.3638C28.8317 21.3713 28.823 21.3828 28.8192 21.3961C28.6467 21.9348 28.2915 22.4026 27.8101 22.7252C27.3287 23.0478 26.7488 23.2065 26.1626 23.1763C25.4732 23.1176 24.8328 22.8098 24.3708 22.3152C23.9087 21.8206 23.6596 21.176 23.6736 20.5118V19.813C22.0458 19.813 20.4847 20.4337 19.3337 21.5387C18.1826 22.6437 17.536 24.1424 17.536 25.705V26.5468C17.536 27.4397 17.9055 28.2961 18.5632 28.9275C19.221 29.5589 20.113 29.9137 21.0432 29.9137H24.1813C24.0303 29.8469 23.9023 29.7402 23.8123 29.606C23.7224 29.4718 23.6743 29.3157 23.6736 29.1561V28.2302H25.4272V29.1561C25.4265 29.3157 25.3784 29.4718 25.2885 29.606C25.1985 29.7402 25.0705 29.8469 24.9195 29.9137H27.6885C27.5375 29.8469 27.4095 29.7402 27.3195 29.606C27.2296 29.4718 27.1815 29.3157 27.1808 29.1561V28.2302H28.9344V29.1561C28.9337 29.3157 28.8856 29.4718 28.7956 29.606C28.7057 29.7402 28.5777 29.8469 28.4267 29.9137H31.1264C31.4752 29.9137 31.8097 29.7806 32.0564 29.5439C32.303 29.3071 32.4416 28.9859 32.4416 28.6511C32.4416 28.3162 32.303 27.9951 32.0564 27.7583C31.8097 27.5215 31.4752 27.3885 31.1264 27.3885Z" fill="white"/>
<path d="M25.4272 14.7626L22.7968 16.446V13.2535C22.7968 13.1702 22.8225 13.0889 22.8707 13.0197C22.9189 12.9504 22.9873 12.8965 23.0674 12.8646C23.1476 12.8328 23.2357 12.8245 23.3207 12.8407C23.4058 12.8569 23.4839 12.897 23.5452 12.9559L25.4272 14.7626Z" fill="white"/>
<path d="M27.1808 14.7626L29.8112 16.446V13.2535C29.8112 13.1702 29.7855 13.0889 29.7373 13.0197C29.6891 12.9504 29.6207 12.8965 29.5406 12.8646C29.4604 12.8328 29.3723 12.8245 29.2873 12.8407C29.2022 12.8569 29.1241 12.897 29.0628 12.9559L27.1808 14.7626Z" fill="white"/>
<path d="M28.9344 14.7626H22.7968V17.2878C22.7968 18.1807 23.1663 19.0371 23.824 19.6685C24.4818 20.2999 25.3738 20.6547 26.304 20.6547C27.2342 20.6547 28.1262 20.2999 28.784 19.6685C29.4417 19.0371 29.8112 18.1807 29.8112 17.2878V14.7626H28.9344ZM24.7696 17.7086C24.6395 17.7086 24.5124 17.6716 24.4043 17.6022C24.2961 17.5329 24.2118 17.4343 24.1621 17.3189C24.1123 17.2036 24.0993 17.0766 24.1246 16.9542C24.15 16.8317 24.2127 16.7192 24.3046 16.6309C24.3966 16.5427 24.5138 16.4825 24.6413 16.4582C24.7689 16.4338 24.9011 16.4463 25.0213 16.4941C25.1414 16.5419 25.2441 16.6228 25.3164 16.7266C25.3886 16.8304 25.4272 16.9525 25.4272 17.0773C25.4272 17.2448 25.3579 17.4053 25.2346 17.5237C25.1113 17.6421 24.944 17.7086 24.7696 17.7086ZM28.0576 17.7086C27.9275 17.7086 27.8004 17.6716 27.6923 17.6022C27.5841 17.5329 27.4998 17.4343 27.4501 17.3189C27.4003 17.2036 27.3873 17.0766 27.4126 16.9542C27.438 16.8317 27.5006 16.7192 27.5926 16.6309C27.6846 16.5427 27.8018 16.4825 27.9293 16.4582C28.0569 16.4338 28.1891 16.4463 28.3093 16.4941C28.4294 16.5419 28.5321 16.6228 28.6044 16.7266C28.6766 16.8304 28.7152 16.9525 28.7152 17.0773C28.7152 17.2448 28.6459 17.4053 28.5226 17.5237C28.3993 17.6421 28.232 17.7086 28.0576 17.7086Z" fill="white"/>
</g>
<defs>
<clipPath id="clip0_1_207">
<rect width="75" height="57.4964" fill="white" transform="translate(0 22.2734)"/>
</clipPath>
<clipPath id="clip1_1_207">
<rect width="56.6547" height="54.3885" fill="white" transform="translate(9.17267)"/>
</clipPath>
<clipPath id="clip2_1_207">
<rect width="22.1223" height="18.6475" fill="white" transform="matrix(-1 0 0 1 60.4316 11.3957)"/>
</clipPath>
</defs>
</svg>
