<svg width="445" height="83" viewBox="0 0 445 83" fill="none" xmlns="http://www.w3.org/2000/svg">
<path d="M44.6747 12.1751L41.5 15.5469L38.3252 12.1751C29.5583 2.8635 15.3446 2.8635 6.57772 12.1751C-2.18916 21.4866 -2.18916 36.5874 6.57772 45.9042L9.75247 49.2761L41.5 83L73.2475 49.2709L76.4222 45.899C85.1891 36.5874 85.1891 21.4866 76.4222 12.1699C67.6553 2.85831 53.4416 2.85831 44.6747 12.1751Z" fill="black"/>
<path d="M55.029 48.4637L54.9045 48.0904L54.6556 47.4927L54.4897 47.1191L54.0332 46.3722L53.4105 45.6624L52.5806 44.9903L51.6262 44.2058L50.8376 43.5336L50.0907 42.7864L49.4681 42.0395L48.8871 41.2553L48.2647 40.2095L47.891 39.4998L47.4345 38.7153L46.8535 37.8563L46.1897 37.0718L45.7332 36.6609L45.2767 36.2876L44.654 35.8767L43.9072 35.5779L42.9527 35.2791L41.998 35.167H41.0022L40.0474 35.2791L38.6782 35.7272L37.35 36.5489L36.4784 37.3334L35.9391 38.0803L35.3995 38.9393L34.694 40.2467L34.0299 41.4044L33.2831 42.3009L32.3701 43.3467L29.6724 45.5876L29.4235 45.7744L28.8011 46.5589L28.3032 47.4551L28.0126 48.5757L27.8467 49.5842L27.805 50.7048L27.9295 51.4517L28.3032 52.4975L28.8425 53.4686L29.4235 54.141L30.1706 54.8132L31.1665 55.4108L32.3285 55.8964L33.2001 56.0832L34.5283 56.1205L35.8147 55.8589L36.6033 55.5228L36.935 55.2988L37.6822 54.9252L38.3876 54.5518L39.01 54.2157L39.6741 53.9542L40.2137 53.7301L40.8361 53.5806L41.5001 53.5433L42.2887 53.6553L42.8697 53.7674L43.8241 54.1782L44.9861 54.7011L45.9408 55.2615L46.8122 55.7096L47.6838 56.0457L48.5137 56.1953L49.2192 56.2325L49.8002 56.1953L50.7132 55.9709L51.8752 55.4856L52.7051 54.9627L53.5768 54.1782L54.1992 53.4313L54.7387 52.4228L55.0708 51.4517L55.1953 50.63V49.771L55.1536 49.2854L55.029 48.4637Z" fill="white"/>
<path d="M47.9288 22.6292C50.3903 22.8637 52.0849 25.6147 51.7138 28.7739C51.3424 31.9331 49.0456 34.3042 46.5839 34.0697C44.1224 33.8355 42.4278 31.0843 42.7989 27.9251C43.1703 24.7659 45.4671 22.3947 47.9288 22.6292Z" fill="white"/>
<path d="M40.1891 27.9099C40.5605 31.0691 38.8659 33.8203 36.4041 34.0545C33.9424 34.289 31.6459 31.9179 31.2745 28.7587C30.9031 25.5995 32.5977 22.8485 35.0595 22.614C37.5212 22.3798 39.818 24.7509 40.1891 27.9099Z" fill="white"/>
<path d="M56.9447 31.6822C59.361 32.1665 60.7016 35.0566 59.9394 38.1372C59.1769 41.2177 56.6002 43.3225 54.1839 42.8382C51.7679 42.3539 50.427 39.4637 51.1895 36.3832C51.9517 33.3027 54.5287 31.1979 56.9447 31.6822Z" fill="white"/>
<path d="M31.8061 36.3823C32.5683 39.4629 31.2277 42.353 28.8114 42.8373C26.3954 43.3216 23.8187 41.2167 23.0562 38.1362C22.294 35.0556 23.6346 32.1656 26.0506 31.6813C28.4669 31.1969 31.0436 33.3018 31.8061 36.3823Z" fill="white"/>
<path d="M121.712 57.336C120.56 57.336 119.808 56.792 119.456 55.704L116 45.72L106.208 47.88L103.088 55.752C102.896 56.2 102.608 56.568 102.224 56.856C101.872 57.144 101.424 57.288 100.88 57.288C100.24 57.288 99.68 57.064 99.2 56.616C98.72 56.168 98.48 55.64 98.48 55.032C98.48 54.616 98.592 54.136 98.816 53.592L100.736 48.792C100.544 48.728 100.4 48.664 100.304 48.6C99.472 48.184 99.056 47.48 99.056 46.488C99.056 45.912 99.216 45.416 99.536 45C99.888 44.584 100.336 44.312 100.88 44.184L102.656 43.8L109.76 25.752C109.952 25.272 110.256 24.904 110.672 24.648C111.088 24.392 111.536 24.264 112.016 24.264C112.528 24.264 112.976 24.392 113.36 24.648C113.744 24.904 114.032 25.304 114.224 25.848L123.776 53.544C123.808 53.608 123.872 53.8 123.968 54.12C124.064 54.408 124.112 54.712 124.112 55.032C124.112 55.64 123.888 56.184 123.44 56.664C122.992 57.112 122.416 57.336 121.712 57.336ZM114.416 41.256L111.824 33.528L108.224 42.6L114.416 41.256ZM135.668 57.576C134.548 57.576 133.412 57.464 132.26 57.24C131.108 57.048 130.324 56.888 129.908 56.76C129.396 56.6 128.964 56.296 128.612 55.848C128.26 55.4 128.084 54.92 128.084 54.408V27.192C128.084 26.52 128.308 25.96 128.756 25.512C129.236 25.064 129.812 24.84 130.484 24.84C133.716 24.84 136.98 25.32 140.276 26.28C143.572 27.24 146.42 29.032 148.82 31.656C151.252 34.28 152.468 37.912 152.468 42.552C152.468 45.912 151.732 48.728 150.26 51C148.788 53.24 146.788 54.904 144.26 55.992C141.732 57.048 138.868 57.576 135.668 57.576ZM135.668 52.776C139.412 52.776 142.34 51.912 144.452 50.184C146.596 48.456 147.668 45.912 147.668 42.552C147.668 38.392 146.308 35.304 143.588 33.288C140.9 31.272 137.332 30.088 132.884 29.736V52.488C133.972 52.68 134.9 52.776 135.668 52.776ZM168.743 57.288C166.375 57.288 164.247 56.632 162.359 55.32C160.471 53.976 158.983 52.152 157.895 49.848C156.839 47.544 156.311 44.968 156.311 42.12C156.311 38.888 156.967 35.928 158.279 33.24C159.591 30.552 161.335 28.44 163.511 26.904C165.719 25.336 168.087 24.552 170.615 24.552C172.983 24.552 175.111 25.208 176.999 26.52C178.919 27.832 180.407 29.64 181.463 31.944C182.551 34.248 183.095 36.84 183.095 39.72C183.095 42.984 182.439 45.96 181.127 48.648C179.815 51.304 178.055 53.416 175.847 54.984C173.671 56.52 171.303 57.288 168.743 57.288ZM168.743 52.728C170.471 52.728 172.055 52.184 173.495 51.096C174.967 50.008 176.135 48.488 176.999 46.536C177.863 44.584 178.295 42.376 178.295 39.912C178.295 37.672 177.911 35.736 177.143 34.104C176.407 32.472 175.415 31.24 174.167 30.408C172.951 29.544 171.671 29.112 170.327 29.112C168.663 29.112 167.127 29.672 165.719 30.792C164.311 31.912 163.191 33.464 162.359 35.448C161.527 37.4 161.111 39.624 161.111 42.12C161.111 44.36 161.463 46.28 162.167 47.88C162.871 49.48 163.799 50.696 164.951 51.528C166.135 52.328 167.399 52.728 168.743 52.728ZM191 57.288C190.36 57.288 189.8 57.064 189.32 56.616C188.84 56.168 188.6 55.608 188.6 54.936V27.528C188.6 26.632 188.712 25.992 188.936 25.608C189.16 25.192 189.576 24.92 190.184 24.792C190.824 24.632 191.848 24.552 193.256 24.552C199.208 24.552 203.656 25.432 206.6 27.192C209.576 28.952 211.064 31.496 211.064 34.824C211.064 37.512 210.12 39.72 208.232 41.448C206.344 43.176 204.056 44.44 201.368 45.24C198.68 46.04 196.008 46.488 193.352 46.584V54.936C193.352 55.608 193.128 56.168 192.68 56.616C192.232 57.064 191.672 57.288 191 57.288ZM193.352 41.88C196.488 41.688 199.432 41.064 202.184 40.008C204.936 38.92 206.312 37.192 206.312 34.824C206.312 33.064 205.24 31.704 203.096 30.744C200.984 29.784 197.96 29.304 194.024 29.304H193.352V41.88ZM224.107 57.288C223.467 57.288 222.907 57.064 222.427 56.616C221.947 56.136 221.707 55.576 221.707 54.936V29.64H214.171C213.531 29.64 212.971 29.4 212.491 28.92C212.043 28.44 211.819 27.88 211.819 27.24C211.819 26.568 212.043 26.008 212.491 25.56C212.971 25.112 213.531 24.888 214.171 24.888H234.043C234.715 24.888 235.275 25.112 235.723 25.56C236.171 26.008 236.395 26.568 236.395 27.24C236.395 27.912 236.171 28.488 235.723 28.968C235.275 29.416 234.715 29.64 234.043 29.64H226.459V54.936C226.459 55.576 226.219 56.136 225.739 56.616C225.291 57.064 224.747 57.288 224.107 57.288ZM266.053 57.48C264.421 57.48 262.837 57.096 261.301 56.328C259.797 55.56 258.549 54.488 257.557 53.112C256.597 51.704 256.117 50.104 256.117 48.312C256.117 46.04 256.693 44.184 257.845 42.744C258.997 41.304 260.565 40.008 262.549 38.856C260.789 36.584 259.909 34.392 259.909 32.28C259.909 31.032 260.261 29.848 260.965 28.728C261.669 27.608 262.597 26.712 263.749 26.04C264.901 25.368 266.117 25.032 267.397 25.032C268.677 25.032 269.893 25.368 271.045 26.04C272.197 26.712 273.125 27.608 273.829 28.728C274.533 29.816 274.885 30.968 274.885 32.184C274.885 33.944 274.469 35.448 273.637 36.696C272.805 37.912 271.509 39.048 269.749 40.104L273.973 45.24L274.357 44.04C274.645 43.176 274.933 42.6 275.221 42.312C275.509 41.992 276.005 41.832 276.709 41.832C277.349 41.832 277.877 42.056 278.293 42.504C278.741 42.92 278.965 43.448 278.965 44.088C278.965 44.632 278.789 45.384 278.437 46.344C278.117 47.304 277.733 48.232 277.285 49.128L280.981 53.64C281.141 53.8 281.269 54.024 281.365 54.312C281.461 54.568 281.509 54.808 281.509 55.032C281.509 55.64 281.285 56.168 280.837 56.616C280.421 57.064 279.893 57.288 279.253 57.288C278.549 57.288 277.973 57.016 277.525 56.472L274.741 53.112C273.621 54.456 272.325 55.528 270.853 56.328C269.381 57.096 267.781 57.48 266.053 57.48ZM266.677 36.648C268.309 35.784 269.333 35.032 269.749 34.392C270.197 33.72 270.421 33.016 270.421 32.28C270.421 31.576 270.101 30.952 269.461 30.408C268.853 29.832 268.165 29.544 267.397 29.544C266.693 29.544 266.021 29.816 265.381 30.36C264.741 30.904 264.421 31.544 264.421 32.28C264.421 32.92 264.645 33.64 265.093 34.44C265.541 35.208 266.069 35.944 266.677 36.648ZM266.053 52.92C267.173 52.92 268.213 52.616 269.173 52.008C270.165 51.4 271.029 50.584 271.765 49.56L265.717 42.312C264.053 43.24 262.789 44.152 261.925 45.048C261.061 45.912 260.629 47 260.629 48.312C260.629 49.304 260.917 50.152 261.493 50.856C262.069 51.528 262.773 52.04 263.605 52.392C264.437 52.744 265.253 52.92 266.053 52.92ZM324.634 57.336C323.482 57.336 322.73 56.792 322.378 55.704L318.922 45.72L309.13 47.88L306.01 55.752C305.818 56.2 305.53 56.568 305.146 56.856C304.794 57.144 304.346 57.288 303.802 57.288C303.162 57.288 302.602 57.064 302.122 56.616C301.642 56.168 301.402 55.64 301.402 55.032C301.402 54.616 301.514 54.136 301.738 53.592L303.658 48.792C303.466 48.728 303.322 48.664 303.226 48.6C302.394 48.184 301.978 47.48 301.978 46.488C301.978 45.912 302.138 45.416 302.458 45C302.81 44.584 303.258 44.312 303.802 44.184L305.578 43.8L312.682 25.752C312.874 25.272 313.178 24.904 313.594 24.648C314.01 24.392 314.458 24.264 314.938 24.264C315.45 24.264 315.898 24.392 316.282 24.648C316.666 24.904 316.954 25.304 317.146 25.848L326.698 53.544C326.73 53.608 326.794 53.8 326.89 54.12C326.986 54.408 327.034 54.712 327.034 55.032C327.034 55.64 326.81 56.184 326.362 56.664C325.914 57.112 325.338 57.336 324.634 57.336ZM317.338 41.256L314.746 33.528L311.146 42.6L317.338 41.256ZM338.59 57.576C337.47 57.576 336.334 57.464 335.182 57.24C334.03 57.048 333.246 56.888 332.83 56.76C332.318 56.6 331.886 56.296 331.534 55.848C331.182 55.4 331.006 54.92 331.006 54.408V27.192C331.006 26.52 331.23 25.96 331.678 25.512C332.158 25.064 332.734 24.84 333.406 24.84C336.638 24.84 339.902 25.32 343.198 26.28C346.494 27.24 349.342 29.032 351.742 31.656C354.174 34.28 355.39 37.912 355.39 42.552C355.39 45.912 354.654 48.728 353.182 51C351.71 53.24 349.71 54.904 347.182 55.992C344.654 57.048 341.79 57.576 338.59 57.576ZM338.59 52.776C342.334 52.776 345.262 51.912 347.374 50.184C349.518 48.456 350.59 45.912 350.59 42.552C350.59 38.392 349.23 35.304 346.51 33.288C343.822 31.272 340.254 30.088 335.806 29.736V52.488C336.894 52.68 337.822 52.776 338.59 52.776ZM371.665 57.288C369.297 57.288 367.169 56.632 365.281 55.32C363.393 53.976 361.905 52.152 360.817 49.848C359.761 47.544 359.233 44.968 359.233 42.12C359.233 38.888 359.889 35.928 361.201 33.24C362.513 30.552 364.257 28.44 366.433 26.904C368.641 25.336 371.009 24.552 373.537 24.552C375.905 24.552 378.033 25.208 379.921 26.52C381.841 27.832 383.329 29.64 384.385 31.944C385.473 34.248 386.017 36.84 386.017 39.72C386.017 42.984 385.361 45.96 384.049 48.648C382.737 51.304 380.977 53.416 378.769 54.984C376.593 56.52 374.225 57.288 371.665 57.288ZM371.665 52.728C373.393 52.728 374.977 52.184 376.417 51.096C377.889 50.008 379.057 48.488 379.921 46.536C380.785 44.584 381.217 42.376 381.217 39.912C381.217 37.672 380.833 35.736 380.065 34.104C379.329 32.472 378.337 31.24 377.089 30.408C375.873 29.544 374.593 29.112 373.249 29.112C371.585 29.112 370.049 29.672 368.641 30.792C367.233 31.912 366.113 33.464 365.281 35.448C364.449 37.4 364.033 39.624 364.033 42.12C364.033 44.36 364.385 46.28 365.089 47.88C365.793 49.48 366.721 50.696 367.873 51.528C369.057 52.328 370.321 52.728 371.665 52.728ZM393.874 57.288C393.202 57.288 392.642 57.064 392.194 56.616C391.746 56.168 391.522 55.608 391.522 54.936V27.432C391.522 26.568 391.602 25.944 391.762 25.56C391.954 25.176 392.306 24.92 392.818 24.792C393.362 24.632 394.21 24.552 395.362 24.552H397.33C402.706 24.552 406.85 25.448 409.762 27.24C412.674 29.032 414.13 31.544 414.13 34.776C414.13 38.872 411.762 41.976 407.026 44.088C410.418 46.776 413.074 50.024 414.994 53.832C415.154 54.152 415.234 54.52 415.234 54.936C415.234 55.576 415.01 56.136 414.562 56.616C414.146 57.064 413.586 57.288 412.882 57.288C411.986 57.288 411.282 56.872 410.77 56.04C406.546 49.32 402.77 45.96 399.442 45.96C398.45 45.96 397.378 46.056 396.226 46.248V54.936C396.226 55.608 395.986 56.168 395.506 56.616C395.058 57.064 394.514 57.288 393.874 57.288ZM396.226 41.832C399.682 41.608 402.738 40.904 405.394 39.72C408.05 38.536 409.378 36.888 409.378 34.776C409.378 32.952 408.306 31.56 406.162 30.6C404.05 29.64 401.058 29.16 397.186 29.16H396.226V41.832ZM421.906 57C421.234 57 420.658 56.776 420.178 56.328C419.73 55.848 419.506 55.272 419.506 54.6V27.24C419.506 26.568 419.73 26.008 420.178 25.56C420.658 25.08 421.234 24.84 421.906 24.84H441.058C441.73 24.84 442.29 25.08 442.738 25.56C443.186 26.008 443.41 26.568 443.41 27.24C443.41 27.912 443.186 28.488 442.738 28.968C442.29 29.416 441.73 29.64 441.058 29.64H424.258V37.896H438.85C439.522 37.896 440.082 38.12 440.53 38.568C440.978 39.016 441.202 39.576 441.202 40.248C441.202 40.92 440.978 41.496 440.53 41.976C440.082 42.424 439.522 42.648 438.85 42.648H424.258V52.2H440.962C441.634 52.2 442.194 52.44 442.642 52.92C443.09 53.368 443.314 53.928 443.314 54.6C443.314 55.272 443.09 55.848 442.642 56.328C442.194 56.776 441.634 57 440.962 57H421.906Z" fill="black"/>
</svg>
