<?xml version="1.0" ?><!DOCTYPE svg  PUBLIC '-//W3C//DTD SVG 1.1//EN'  'http://www.w3.org/Graphics/SVG/1.1/DTD/svg11.dtd'><svg height="43.3492mm" style="shape-rendering:geometricPrecision; text-rendering:geometricPrecision; image-rendering:optimizeQuality; fill-rule:evenodd; clip-rule:evenodd" version="1.1" viewBox="0 0 4335 4335" width="43.3492mm" xml:space="preserve" xmlns="http://www.w3.org/2000/svg" xmlns:xlink="http://www.w3.org/1999/xlink"><defs><style type="text/css">
   <![CDATA[
    .fil0 {fill:#D9DADA}
    .fil3 {fill:#212C63}
    .fil2 {fill:#38447E}
    .fil1 {fill:#5FCCFF}
   ]]>
  </style></defs><g id="Layer_x0020_1"><g id="_754636128"><path class="fil0" d="M733 18l2868 0c385,0 700,315 700,700l0 2868c0,385 -315,700 -700,700l-2868 0c-385,0 -700,-315 -700,-700l0 -2868c0,-385 315,-700 700,-700z"/><g><path class="fil1" d="M1529 3129l366 -1701 762 0c0,0 429,-31 452,406 23,437 -337,628 -509,628 -172,0 -567,0 -567,0l-142 663 -121 4 -241 0z"/><path class="fil2" d="M1223 2876l366 -1701 762 0c0,0 429,-31 452,406 23,437 -337,628 -509,628 -172,0 -567,0 -567,0l-142 663 -121 4 -241 0z"/><path class="fil3" d="M1728 2206l169 -785 743 0 126 8c0,0 38,61 38,176 0,115 -34,257 -138,402 -103,146 -291,203 -425,203 -134,0 -513,-4 -513,-4z"/></g></g></g></svg>